<?xml version="1.0" standalone="no"?><!DOCTYPE svg PUBLIC "-//W3C//DTD SVG 1.1//EN" "http://www.w3.org/Graphics/SVG/1.1/DTD/svg11.dtd"><svg t="1638443989564" class="icon" viewBox="0 0 1024 1024" version="1.1" xmlns="http://www.w3.org/2000/svg" p-id="2346" xmlns:xlink="http://www.w3.org/1999/xlink" width="200" height="200"><defs><style type="text/css"></style></defs><path d="M464.8 556c-5.4-4.7-12.7-6.8-19.8-5.8-1.2-0.1-2.4-0.2-3.5-0.2H278.2c-8.9 0-17.1 4.7-21.5 12.4-4.4 7.7-4.4 17.2 0 24.8 4.4 7.7 12.6 12.4 21.5 12.4h106.1L249.6 734.3c-9.7 9.7-9.7 25.4 0 35.1 9.7 9.7 25.4 9.7 35.1 0l138.9-138.9V738c0 13.7 11.1 24.8 24.8 24.8s24.8-11.1 24.8-24.8V574.8c0.1-7.2-3-14.1-8.4-18.8zM731.1 255.9L607.4 379.6v-91c0-12.6-10.2-22.8-22.8-22.8s-22.8 10.2-22.8 22.8v149.9c0 6 2.4 11.8 6.7 16.1 4.1 4.1 9.8 6.7 16.1 6.7h149.9c12.6 0 22.8-10.2 22.8-22.8s-10.2-22.8-22.8-22.8h-98.7l127.6-127.6c8.9-8.9 8.9-23.4 0-32.3-9-8.8-23.4-8.8-32.3 0.1z" fill="#f4ea2a" p-id="2347"></path><path d="M851.2 703.9v97.5c0 26.1-21.1 47.2-47.2 47.2H222c-26.1 0-47.2-21.1-47.2-47.2v-582c0-26.1 21.1-47.2 47.2-47.2h582c12.5 0 24.5 5 33.4 13.8 8.8 8.8 13.8 20.9 13.8 33.4v394.2h44.5V227.3c0-54.9-44.5-99.5-99.5-99.5H229.8c-54.9 0-99.5 44.5-99.5 99.5v566.3c0 54.9 44.5 99.5 99.5 99.5h566.3c54.9 0 99.5-44.5 99.5-99.5v-89.7h-44.4z" fill="#f4ea2a" p-id="2348"></path><path d="M873.5 613.7m-22.2 0a22.2 22.2 0 1 0 44.4 0 22.2 22.2 0 1 0-44.4 0Z" fill="#f4ea2a" p-id="2349"></path><path d="M873.5 703.9m-22.2 0a22.2 22.2 0 1 0 44.4 0 22.2 22.2 0 1 0-44.4 0Z" fill="#f4ea2a" p-id="2350"></path></svg>